<svg width="512" height="512" xmlns="http://www.w3.org/2000/svg">

 <g>
  <title>background</title>
  <rect fill="none" id="canvas_background" height="402" width="582" y="-1" x="-1"/>
 </g>
 <g>
  <title>Layer 1</title>
  <polygon id="svg_1" points="286.189,10.023 197.834,96.197 161.838,233.639 216.378,455.071 293.825,501.977 308.006,451.799   337.457,139.829 " fill="#00007f"/>
  <polygon id="svg_2" points="337.457,139.829 282.917,80.926 207.651,185.643 293.825,501.977 308.006,451.8 " fill="#005fbf"/>
  <polygon id="svg_3" points="337.457,139.829 337.457,139.829 286.189,10.023 282.917,80.926 " fill="#56aaff"/>
  <polygon id="svg_4" points="282.917,80.926 286.189,10.023 197.834,96.197 207.651,185.643 " fill="#0000bf"/>
  <polygon id="svg_5" points="207.651,185.643 216.378,455.071 293.825,501.977 " fill="#0000bf"/>
  <path id="svg_6" fill="#aad4ff" d="m135.817,47.732c0,0 2.546,24.612 -17.54,35.928c0,0 20.086,6.602 21.218,30.459c0,0 0.849,-27.347 16.407,-35.551c0,0 -17.539,-7.072 -20.085,-30.836z"/>
  <path id="svg_7" fill="#aad4ff" d="m373.637,222.807c0,0 2.547,24.611 -17.539,35.928c0,0 20.086,6.602 21.217,30.459c0,0 0.849,-27.347 16.408,-35.551c0,0 -17.539,-7.073 -20.086,-30.836z"/>
  <path id="svg_8" fill="#aad4ff" d="m154.63,356.787c0,0 2.546,24.612 -17.54,35.929c0,0 20.086,6.602 21.218,30.459c0,0 0.849,-27.347 16.408,-35.551c0,0 -17.54,-7.073 -20.086,-30.837z"/>
 </g>
</svg>